<?xml version="1.0" encoding="utf-8"?>
<svg viewBox="0 0 500 500" xmlns="http://www.w3.org/2000/svg" xmlns:bx="https://boxy-svg.com">
  <defs>
    <linearGradient id="gradient-1" bx:pinned="true">
      <stop offset="0" style="stop-color: rgb(0, 44, 239);"/>
      <stop offset="1" style="stop-color: rgb(0, 92, 138);"/>
    </linearGradient>
    <linearGradient id="gradient-2" bx:pinned="true"/>
    <linearGradient id="gradient-3" bx:pinned="true"/>
    <linearGradient id="gradient-4" bx:pinned="true">
      <stop offset="0" style="stop-color: rgb(0, 160, 240);"/>
      <stop offset="1" style="stop-color: rgb(0, 92, 138);"/>
    </linearGradient>
    <linearGradient id="gradient-5" bx:pinned="true"/>
    <linearGradient id="gradient-6" bx:pinned="true">
      <stop offset="0" style="stop-color: rgb(0, 160, 240);"/>
      <stop offset="1" style="stop-color: rgb(0, 92, 138);"/>
    </linearGradient>
  </defs>
  <path fill-rule="evenodd" clip-rule="evenodd" d="M20.2088 18.5044L35.9132 18.5043C36.4688 18.5043 37.024 18.5859 37.6042 18.8564C38.2997 19.1806 38.6685 19.6916 38.9269 20.0695C38.947 20.0989 38.9658 20.1292 38.9832 20.1602C39.287 20.701 39.4436 21.2849 39.4436 21.913C39.4436 22.5098 39.3016 23.16 38.9832 23.7267C38.9802 23.7322 38.9771 23.7375 38.974 23.7429L29.0522 40.7864C28.8334 41.1623 28.4307 41.3928 27.9958 41.3913C27.5609 41.3898 27.1598 41.1563 26.9437 40.7789L17.2041 23.7718C17.2013 23.7672 17.1985 23.7626 17.1957 23.7579C16.9728 23.3906 16.6281 22.8226 16.5678 22.0896C16.5124 21.4155 16.6639 20.7401 17.0026 20.1545C17.3413 19.5688 17.8512 19.1006 18.4645 18.814C19.1221 18.5067 19.7885 18.5044 20.2088 18.5044ZM26.7827 20.9391L20.2088 20.9391C19.7769 20.9391 19.6111 20.9657 19.4952 21.0199C19.3349 21.0947 19.2003 21.2178 19.1103 21.3734C19.0203 21.5291 18.9796 21.7095 18.9944 21.8901C19.0029 21.9936 19.0451 22.112 19.294 22.5225C19.2992 22.5311 19.3043 22.5398 19.3093 22.5485L26.7827 35.5984V20.9391ZM29.2175 20.9391V35.6629L36.864 22.5278C36.9503 22.371 37.0088 22.1444 37.0088 21.913C37.0088 21.7253 36.9699 21.5623 36.8829 21.3943C36.7916 21.263 36.736 21.1935 36.6895 21.1459C36.6496 21.1052 36.6189 21.0834 36.5755 21.0632C36.3947 20.9789 36.2097 20.9391 35.9132 20.9391L29.2175 20.9391Z" transform="matrix(1, 0, 0, 1, 44.07719, 47.482411)" style="stroke-linecap: round; paint-order: stroke; fill: rgb(0, 160, 240);"/>
  <path d="M 20.209 18.004 L 35.913 18.004 C 36.505 18.007 37.166 18.112 37.815 18.403 C 38.608 18.808 39.078 19.404 39.34 19.787 C 39.366 19.826 39.396 19.875 39.419 19.915 C 39.746 20.514 39.944 21.22 39.944 21.913 C 39.944 22.563 39.764 23.335 39.42 23.97 C 39.414 23.98 39.408 23.991 39.406 23.994 L 29.484 41.038 C 29.174 41.505 28.554 41.893 27.994 41.891 C 27.434 41.889 26.817 41.497 26.51 41.027 L 16.773 24.026 C 16.771 24.022 16.77 24.021 16.767 24.016 C 16.545 23.649 16.165 22.973 16.069 22.131 C 16.019 21.381 16.204 20.56 16.57 19.904 C 16.956 19.26 17.576 18.69 18.253 18.361 C 19.015 18.03 19.788 18.004 20.209 18.004 Z M 18.676 19.267 C 18.126 19.511 17.727 19.878 17.435 20.405 C 17.124 20.92 17.006 21.45 17.066 22.049 C 17.091 22.672 17.4 23.131 17.623 23.499 C 17.625 23.501 17.628 23.507 17.631 23.512 L 27.378 40.53 C 27.503 40.816 27.688 40.89 27.998 40.891 C 28.307 40.892 28.493 40.82 28.62 40.535 L 38.542 23.492 C 38.545 23.487 38.545 23.486 38.544 23.487 C 38.836 22.99 38.944 22.456 38.944 21.913 C 38.944 21.35 38.828 20.888 38.547 20.405 C 38.535 20.384 38.528 20.372 38.514 20.352 C 38.259 19.979 37.991 19.554 37.393 19.31 C 36.882 19.06 36.432 19.002 35.913 19.004 L 20.209 19.004 C 19.789 19.004 19.229 18.983 18.676 19.267 Z M 26.349 35.847 L 18.876 22.798 C 18.872 22.791 18.87 22.787 18.866 22.782 C 18.596 22.326 18.518 22.098 18.496 21.931 C 18.487 21.675 18.56 21.349 18.677 21.123 C 18.815 20.908 19.06 20.684 19.284 20.567 C 19.466 20.492 19.737 20.442 20.209 20.439 L 27.283 20.439 L 27.283 37.478 Z M 26.283 21.439 L 20.209 21.439 C 19.816 21.436 19.757 21.439 19.707 21.473 C 19.61 21.506 19.585 21.527 19.543 21.624 C 19.481 21.709 19.473 21.744 19.493 21.849 C 19.488 21.889 19.494 21.898 19.722 22.263 C 19.728 22.275 19.737 22.289 19.743 22.299 L 26.283 33.719 Z M 35.913 20.439 C 36.262 20.445 36.553 20.508 36.787 20.61 C 36.869 20.653 36.973 20.727 37.047 20.797 C 37.11 20.863 37.192 20.964 37.293 21.109 L 37.315 21.14 L 37.327 21.164 C 37.435 21.389 37.509 21.667 37.509 21.913 C 37.509 22.207 37.405 22.565 37.296 22.779 L 28.717 37.516 L 28.717 20.439 Z M 29.718 21.439 L 29.718 33.81 L 36.432 22.276 C 36.495 22.178 36.509 22.082 36.509 21.913 C 36.509 21.783 36.527 21.775 36.462 21.664 C 36.396 21.569 36.368 21.532 36.341 21.505 C 36.226 21.448 36.142 21.434 35.913 21.439 Z" style="fill: none;" transform="matrix(1, 0, 0, 1, 44.07719, 47.482411)"/>
</svg>